<mxfile host="app.diagrams.net" modified="2023-12-07T23:17:08.645Z" agent="Mozilla/5.0 (Macintosh; Intel Mac OS X 10_15_7) AppleWebKit/537.36 (KHTML, like Gecko) Chrome/119.0.0.0 Safari/537.36" etag="LbHNeuRZyZcsEXQU6EXj" version="22.1.7" type="device">
  <diagram name="Page-1" id="QGJVlVm4lbgeCP3KeoCf">
    <mxGraphModel dx="1434" dy="623" grid="1" gridSize="10" guides="1" tooltips="1" connect="1" arrows="1" fold="1" page="1" pageScale="1" pageWidth="850" pageHeight="1100" math="0" shadow="0">
      <root>
        <mxCell id="0" />
        <mxCell id="1" parent="0" />
        <mxCell id="_7y6-RLy95nnaobHyLht-1" value="&lt;div style=&quot;background-color: rgb(30, 31, 34); color: rgb(188, 190, 196); font-size: 10px;&quot;&gt;&lt;pre style=&quot;font-family: &amp;quot;JetBrains Mono&amp;quot;, monospace; font-size: 10px;&quot;&gt;&lt;span style=&quot;color: rgb(122, 126, 133); font-size: 10px;&quot;&gt;// Find the short name and the exchange value of the second currency&lt;br style=&quot;font-size: 10px;&quot;&gt;&lt;/span&gt;&lt;span style=&quot;color: rgb(207, 142, 109); font-size: 10px;&quot;&gt;public static &lt;/span&gt;Double &lt;span style=&quot;color: rgb(86, 168, 245); font-size: 10px;&quot;&gt;convert&lt;/span&gt;(String currency1, String currency2, ArrayList&amp;lt;Currency&amp;gt; currencies, Double amount) {&lt;br style=&quot;font-size: 10px;&quot;&gt;    String shortNameCurrency2 = &lt;span style=&quot;color: rgb(207, 142, 109); font-size: 10px;&quot;&gt;null&lt;/span&gt;;&lt;br style=&quot;font-size: 10px;&quot;&gt;    Double exchangeValue;&lt;br style=&quot;font-size: 10px;&quot;&gt;    Double price = &lt;span style=&quot;color: rgb(42, 172, 184); font-size: 10px;&quot;&gt;0.0&lt;/span&gt;;&lt;br style=&quot;font-size: 10px;&quot;&gt;    &lt;br style=&quot;font-size: 10px;&quot;&gt;    &lt;span style=&quot;color: rgb(122, 126, 133); font-size: 10px;&quot;&gt;// Find shortname for the second currency&lt;br style=&quot;font-size: 10px;&quot;&gt;&lt;/span&gt;&lt;span style=&quot;color: rgb(122, 126, 133); font-size: 10px;&quot;&gt;    &lt;/span&gt;&lt;span style=&quot;color: rgb(207, 142, 109); font-size: 10px;&quot;&gt;for &lt;/span&gt;(Integer i = &lt;span style=&quot;color: rgb(42, 172, 184); font-size: 10px;&quot;&gt;0&lt;/span&gt;; i &amp;lt; currencies.size(); i++) {&lt;br style=&quot;font-size: 10px;&quot;&gt;       &lt;span style=&quot;color: rgb(207, 142, 109); font-size: 10px;&quot;&gt;if &lt;/span&gt;(currencies.get(i).getName() == currency2) {&lt;br style=&quot;font-size: 10px;&quot;&gt;          shortNameCurrency2 = currencies.get(i).getShortName();&lt;br style=&quot;font-size: 10px;&quot;&gt;          &lt;span style=&quot;color: rgb(207, 142, 109); font-size: 10px;&quot;&gt;break&lt;/span&gt;;&lt;br style=&quot;font-size: 10px;&quot;&gt;       }&lt;br style=&quot;font-size: 10px;&quot;&gt;    }&lt;br style=&quot;font-size: 10px;&quot;&gt;    &lt;br style=&quot;font-size: 10px;&quot;&gt;    &lt;span style=&quot;color: rgb(122, 126, 133); font-size: 10px;&quot;&gt;// Find exchange value and call convert() to calcul the new price&lt;br style=&quot;font-size: 10px;&quot;&gt;&lt;/span&gt;&lt;span style=&quot;color: rgb(122, 126, 133); font-size: 10px;&quot;&gt;    &lt;/span&gt;&lt;span style=&quot;color: rgb(207, 142, 109); font-size: 10px;&quot;&gt;if &lt;/span&gt;(shortNameCurrency2 != &lt;span style=&quot;color: rgb(207, 142, 109); font-size: 10px;&quot;&gt;null&lt;/span&gt;) {&lt;br style=&quot;font-size: 10px;&quot;&gt;       &lt;span style=&quot;color: rgb(207, 142, 109); font-size: 10px;&quot;&gt;for &lt;/span&gt;(Integer i = &lt;span style=&quot;color: rgb(42, 172, 184); font-size: 10px;&quot;&gt;0&lt;/span&gt;; i &amp;lt; currencies.size(); i++) {&lt;br style=&quot;font-size: 10px;&quot;&gt;          &lt;span style=&quot;color: rgb(207, 142, 109); font-size: 10px;&quot;&gt;if &lt;/span&gt;(currencies.get(i).getName() == currency1) {&lt;br style=&quot;font-size: 10px;&quot;&gt;             exchangeValue = currencies.get(i).getExchangeValues().get(shortNameCurrency2);&lt;br style=&quot;font-size: 10px;&quot;&gt;             price = Currency.&lt;span style=&quot;font-style: italic; font-size: 10px;&quot;&gt;convert&lt;/span&gt;(amount, exchangeValue);&lt;br style=&quot;font-size: 10px;&quot;&gt;             &lt;span style=&quot;color: rgb(207, 142, 109); font-size: 10px;&quot;&gt;break&lt;/span&gt;;&lt;br style=&quot;font-size: 10px;&quot;&gt;          }&lt;br style=&quot;font-size: 10px;&quot;&gt;       }&lt;br style=&quot;font-size: 10px;&quot;&gt;    }&lt;br style=&quot;font-size: 10px;&quot;&gt;    &lt;br style=&quot;font-size: 10px;&quot;&gt;    &lt;span style=&quot;color: rgb(207, 142, 109); font-size: 10px;&quot;&gt;return &lt;/span&gt;price;&lt;br style=&quot;font-size: 10px;&quot;&gt;}&lt;/pre&gt;&lt;/div&gt;" style="rounded=0;whiteSpace=wrap;html=1;align=left;fontSize=10;labelPosition=center;verticalLabelPosition=middle;verticalAlign=middle;horizontal=1;" parent="1" vertex="1">
          <mxGeometry x="30" y="40" width="900" height="440" as="geometry" />
        </mxCell>
        <mxCell id="_7y6-RLy95nnaobHyLht-19" value="" style="edgeStyle=orthogonalEdgeStyle;rounded=0;orthogonalLoop=1;jettySize=auto;html=1;fontSize=10;align=center;labelPosition=center;verticalLabelPosition=middle;verticalAlign=middle;horizontal=1;" parent="1" source="_7y6-RLy95nnaobHyLht-2" target="_7y6-RLy95nnaobHyLht-7" edge="1">
          <mxGeometry relative="1" as="geometry" />
        </mxCell>
        <mxCell id="_7y6-RLy95nnaobHyLht-2" value="&lt;div style=&quot;color: rgb(59, 59, 59); background-color: rgb(255, 255, 255); font-family: Menlo, Monaco, &amp;quot;Courier New&amp;quot;, monospace; line-height: 18px; font-size: 10px;&quot;&gt;&lt;div style=&quot;font-size: 10px;&quot;&gt;        String shortNameCurrency2 &lt;span style=&quot;color: rgb(0, 0, 0); font-size: 10px;&quot;&gt;=&lt;/span&gt; &lt;span style=&quot;color: rgb(0, 0, 255); font-size: 10px;&quot;&gt;null&lt;/span&gt;;&lt;/div&gt;&lt;div style=&quot;font-size: 10px;&quot;&gt;&lt;/div&gt;&lt;/div&gt;" style="ellipse;whiteSpace=wrap;html=1;aspect=fixed;fontSize=10;align=center;labelPosition=center;verticalLabelPosition=middle;verticalAlign=middle;horizontal=1;" parent="1" vertex="1">
          <mxGeometry x="80" y="530" width="120" height="120" as="geometry" />
        </mxCell>
        <mxCell id="_7y6-RLy95nnaobHyLht-43" value="" style="edgeStyle=orthogonalEdgeStyle;rounded=0;orthogonalLoop=1;jettySize=auto;html=1;fontSize=10;" parent="1" source="_7y6-RLy95nnaobHyLht-4" target="_7y6-RLy95nnaobHyLht-16" edge="1">
          <mxGeometry relative="1" as="geometry" />
        </mxCell>
        <mxCell id="_7y6-RLy95nnaobHyLht-4" value="&lt;div style=&quot;color: rgb(59, 59, 59); background-color: rgb(255, 255, 255); font-family: Menlo, Monaco, &amp;quot;Courier New&amp;quot;, monospace; font-size: 10px; line-height: 18px;&quot;&gt;&lt;div style=&quot;font-size: 10px;&quot;&gt;                    exchangeValue = currencies&lt;span style=&quot;color: rgb(0, 0, 0); font-size: 10px;&quot;&gt;.&lt;/span&gt;get(i)&lt;span style=&quot;color: rgb(0, 0, 0); font-size: 10px;&quot;&gt;.&lt;/span&gt;getExchangeValues()&lt;span style=&quot;color: rgb(0, 0, 0); font-size: 10px;&quot;&gt;.&lt;/span&gt;get(shortNameCurrency2);&lt;/div&gt;&lt;div style=&quot;font-size: 10px;&quot;&gt;&lt;/div&gt;&lt;/div&gt;" style="ellipse;whiteSpace=wrap;html=1;aspect=fixed;fontSize=10;align=center;labelPosition=center;verticalLabelPosition=middle;verticalAlign=middle;horizontal=1;" parent="1" vertex="1">
          <mxGeometry x="700" y="990" width="120" height="120" as="geometry" />
        </mxCell>
        <mxCell id="_7y6-RLy95nnaobHyLht-18" value="" style="edgeStyle=orthogonalEdgeStyle;rounded=0;orthogonalLoop=1;jettySize=auto;html=1;fontSize=10;align=center;labelPosition=center;verticalLabelPosition=middle;verticalAlign=middle;horizontal=1;" parent="1" source="_7y6-RLy95nnaobHyLht-5" target="_7y6-RLy95nnaobHyLht-2" edge="1">
          <mxGeometry relative="1" as="geometry" />
        </mxCell>
        <mxCell id="_7y6-RLy95nnaobHyLht-5" value="start" style="ellipse;whiteSpace=wrap;html=1;aspect=fixed;fontSize=10;align=center;labelPosition=center;verticalLabelPosition=middle;verticalAlign=middle;horizontal=1;" parent="1" vertex="1">
          <mxGeometry x="300" y="530" width="120" height="120" as="geometry" />
        </mxCell>
        <mxCell id="_7y6-RLy95nnaobHyLht-6" value="end" style="ellipse;whiteSpace=wrap;html=1;aspect=fixed;fontSize=10;align=center;labelPosition=center;verticalLabelPosition=middle;verticalAlign=middle;horizontal=1;" parent="1" vertex="1">
          <mxGeometry x="500" y="530" width="120" height="120" as="geometry" />
        </mxCell>
        <mxCell id="_7y6-RLy95nnaobHyLht-20" value="" style="edgeStyle=orthogonalEdgeStyle;rounded=0;orthogonalLoop=1;jettySize=auto;html=1;fontSize=10;align=center;labelPosition=center;verticalLabelPosition=middle;verticalAlign=middle;horizontal=1;" parent="1" source="_7y6-RLy95nnaobHyLht-7" target="_7y6-RLy95nnaobHyLht-8" edge="1">
          <mxGeometry relative="1" as="geometry" />
        </mxCell>
        <mxCell id="_7y6-RLy95nnaobHyLht-7" value="&lt;div style=&quot;color: rgb(59, 59, 59); background-color: rgb(255, 255, 255); font-family: Menlo, Monaco, &amp;quot;Courier New&amp;quot;, monospace; line-height: 18px; font-size: 10px;&quot;&gt;&lt;div style=&quot;font-size: 10px;&quot;&gt;        Double exchangeValue;&lt;/div&gt;&lt;div style=&quot;font-size: 10px;&quot;&gt;&lt;/div&gt;&lt;/div&gt;" style="ellipse;whiteSpace=wrap;html=1;aspect=fixed;fontSize=10;align=center;labelPosition=center;verticalLabelPosition=middle;verticalAlign=middle;horizontal=1;" parent="1" vertex="1">
          <mxGeometry x="80" y="700" width="120" height="120" as="geometry" />
        </mxCell>
        <mxCell id="_7y6-RLy95nnaobHyLht-21" value="" style="edgeStyle=orthogonalEdgeStyle;rounded=0;orthogonalLoop=1;jettySize=auto;html=1;fontSize=10;align=center;labelPosition=center;verticalLabelPosition=middle;verticalAlign=middle;horizontal=1;" parent="1" source="_7y6-RLy95nnaobHyLht-8" target="_7y6-RLy95nnaobHyLht-9" edge="1">
          <mxGeometry relative="1" as="geometry" />
        </mxCell>
        <mxCell id="_7y6-RLy95nnaobHyLht-8" value="&lt;div style=&quot;color: rgb(59, 59, 59); background-color: rgb(255, 255, 255); font-family: Menlo, Monaco, &amp;quot;Courier New&amp;quot;, monospace; line-height: 18px; font-size: 10px;&quot;&gt;&lt;div style=&quot;font-size: 10px;&quot;&gt;        Double price &lt;span style=&quot;color: rgb(0, 0, 0); font-size: 10px;&quot;&gt;=&lt;/span&gt; &lt;span style=&quot;color: rgb(9, 134, 88); font-size: 10px;&quot;&gt;0.0&lt;/span&gt;;&lt;/div&gt;&lt;div style=&quot;font-size: 10px;&quot;&gt;&lt;/div&gt;&lt;/div&gt;" style="ellipse;whiteSpace=wrap;html=1;aspect=fixed;fontSize=10;align=center;labelPosition=center;verticalLabelPosition=middle;verticalAlign=middle;horizontal=1;" parent="1" vertex="1">
          <mxGeometry x="80" y="860" width="120" height="120" as="geometry" />
        </mxCell>
        <mxCell id="_7y6-RLy95nnaobHyLht-22" value="" style="edgeStyle=orthogonalEdgeStyle;rounded=0;orthogonalLoop=1;jettySize=auto;html=1;fontSize=10;align=center;labelPosition=center;verticalLabelPosition=middle;verticalAlign=middle;horizontal=1;" parent="1" source="_7y6-RLy95nnaobHyLht-9" target="_7y6-RLy95nnaobHyLht-10" edge="1">
          <mxGeometry relative="1" as="geometry" />
        </mxCell>
        <mxCell id="_7y6-RLy95nnaobHyLht-9" value="&lt;div style=&quot;color: rgb(59, 59, 59); background-color: rgb(255, 255, 255); font-family: Menlo, Monaco, &amp;quot;Courier New&amp;quot;, monospace; line-height: 18px; font-size: 10px;&quot;&gt;&lt;div style=&quot;font-size: 10px;&quot;&gt;        for (&lt;span style=&quot;color: rgb(38, 127, 153); font-size: 10px;&quot;&gt;Integer&lt;/span&gt; i &lt;span style=&quot;color: rgb(0, 0, 0); font-size: 10px;&quot;&gt;=&lt;/span&gt; &lt;span style=&quot;color: rgb(9, 134, 88); font-size: 10px;&quot;&gt;0&lt;/span&gt;; i &lt;span style=&quot;color: rgb(0, 0, 0); font-size: 10px;&quot;&gt;&amp;lt;&lt;/span&gt; currencies&lt;span style=&quot;color: rgb(0, 0, 0); font-size: 10px;&quot;&gt;.&lt;/span&gt;size(); i&lt;span style=&quot;color: rgb(0, 0, 0); font-size: 10px;&quot;&gt;++&lt;/span&gt;) {&lt;/div&gt;&lt;div style=&quot;font-size: 10px;&quot;&gt;&lt;/div&gt;&lt;/div&gt;" style="ellipse;whiteSpace=wrap;html=1;aspect=fixed;fontSize=10;align=center;labelPosition=center;verticalLabelPosition=middle;verticalAlign=middle;horizontal=1;" parent="1" vertex="1">
          <mxGeometry x="80" y="1010" width="120" height="120" as="geometry" />
        </mxCell>
        <mxCell id="_7y6-RLy95nnaobHyLht-23" value="" style="edgeStyle=orthogonalEdgeStyle;rounded=0;orthogonalLoop=1;jettySize=auto;html=1;fontSize=10;" parent="1" source="_7y6-RLy95nnaobHyLht-10" target="_7y6-RLy95nnaobHyLht-11" edge="1">
          <mxGeometry relative="1" as="geometry" />
        </mxCell>
        <mxCell id="_7y6-RLy95nnaobHyLht-10" value="&lt;div style=&quot;color: rgb(59, 59, 59); background-color: rgb(255, 255, 255); font-family: Menlo, Monaco, &amp;quot;Courier New&amp;quot;, monospace; line-height: 18px; font-size: 10px;&quot;&gt;&lt;div style=&quot;font-size: 10px;&quot;&gt;            if (currencies&lt;span style=&quot;color: rgb(0, 0, 0); font-size: 10px;&quot;&gt;.&lt;/span&gt;get(i)&lt;span style=&quot;color: rgb(0, 0, 0); font-size: 10px;&quot;&gt;.&lt;/span&gt;getName() &lt;span style=&quot;color: rgb(0, 0, 0); font-size: 10px;&quot;&gt;==&lt;/span&gt; currency2) {&lt;/div&gt;&lt;div style=&quot;font-size: 10px;&quot;&gt;&lt;/div&gt;&lt;/div&gt;" style="ellipse;whiteSpace=wrap;html=1;aspect=fixed;fontSize=10;align=center;labelPosition=center;verticalLabelPosition=middle;verticalAlign=middle;horizontal=1;" parent="1" vertex="1">
          <mxGeometry x="80" y="1160" width="120" height="120" as="geometry" />
        </mxCell>
        <mxCell id="_7y6-RLy95nnaobHyLht-24" value="" style="edgeStyle=orthogonalEdgeStyle;rounded=0;orthogonalLoop=1;jettySize=auto;html=1;fontSize=10;" parent="1" source="_7y6-RLy95nnaobHyLht-11" target="_7y6-RLy95nnaobHyLht-12" edge="1">
          <mxGeometry relative="1" as="geometry" />
        </mxCell>
        <mxCell id="_7y6-RLy95nnaobHyLht-11" value="&lt;meta charset=&quot;utf-8&quot; style=&quot;font-size: 10px;&quot;&gt;&lt;div style=&quot;color: rgb(59, 59, 59); background-color: rgb(255, 255, 255); font-family: Menlo, Monaco, &amp;quot;Courier New&amp;quot;, monospace; font-weight: normal; font-size: 10px; line-height: 18px;&quot;&gt;&lt;div style=&quot;font-size: 10px;&quot;&gt;&lt;span style=&quot;color: rgb(59, 59, 59); font-size: 10px;&quot;&gt;                shortNameCurrency2 &lt;/span&gt;&lt;span style=&quot;color: rgb(0, 0, 0); font-size: 10px;&quot;&gt;=&lt;/span&gt;&lt;span style=&quot;color: rgb(59, 59, 59); font-size: 10px;&quot;&gt; currencies&lt;/span&gt;&lt;span style=&quot;color: rgb(0, 0, 0); font-size: 10px;&quot;&gt;.&lt;/span&gt;&lt;span style=&quot;color: rgb(59, 59, 59); font-size: 10px;&quot;&gt;get(i)&lt;/span&gt;&lt;span style=&quot;color: rgb(0, 0, 0); font-size: 10px;&quot;&gt;.&lt;/span&gt;&lt;span style=&quot;color: rgb(59, 59, 59); font-size: 10px;&quot;&gt;getShortName();&lt;/span&gt;&lt;/div&gt;&lt;div style=&quot;font-size: 10px;&quot;&gt;&lt;span style=&quot;color: rgb(59, 59, 59); font-size: 10px;&quot;&gt;&lt;/span&gt;&lt;/div&gt;&lt;/div&gt;" style="ellipse;whiteSpace=wrap;html=1;aspect=fixed;fontSize=10;align=center;labelPosition=center;verticalLabelPosition=middle;verticalAlign=middle;horizontal=1;" parent="1" vertex="1">
          <mxGeometry x="80" y="1330" width="120" height="120" as="geometry" />
        </mxCell>
        <mxCell id="_7y6-RLy95nnaobHyLht-12" value="&lt;div style=&quot;color: rgb(59, 59, 59); background-color: rgb(255, 255, 255); font-family: Menlo, Monaco, &amp;quot;Courier New&amp;quot;, monospace; font-size: 10px; line-height: 18px;&quot;&gt;&lt;div style=&quot;line-height: 18px; font-size: 10px;&quot;&gt;&lt;div style=&quot;font-size: 10px;&quot;&gt;                break;&lt;/div&gt;&lt;div style=&quot;font-size: 10px;&quot;&gt;&lt;/div&gt;&lt;/div&gt;&lt;/div&gt;" style="ellipse;whiteSpace=wrap;html=1;aspect=fixed;fontSize=10;align=center;labelPosition=center;verticalLabelPosition=middle;verticalAlign=middle;horizontal=1;" parent="1" vertex="1">
          <mxGeometry x="300" y="1330" width="120" height="120" as="geometry" />
        </mxCell>
        <mxCell id="_7y6-RLy95nnaobHyLht-45" value="" style="edgeStyle=orthogonalEdgeStyle;rounded=0;orthogonalLoop=1;jettySize=auto;html=1;" parent="1" source="_7y6-RLy95nnaobHyLht-13" target="_7y6-RLy95nnaobHyLht-14" edge="1">
          <mxGeometry relative="1" as="geometry" />
        </mxCell>
        <mxCell id="_7y6-RLy95nnaobHyLht-13" value="&lt;div style=&quot;color: rgb(59, 59, 59); background-color: rgb(255, 255, 255); font-family: Menlo, Monaco, &amp;quot;Courier New&amp;quot;, monospace; font-size: 10px; line-height: 18px;&quot;&gt;&lt;div style=&quot;font-size: 10px;&quot;&gt;        if (shortNameCurrency2 &lt;span style=&quot;color: rgb(0, 0, 0); font-size: 10px;&quot;&gt;!=&lt;/span&gt; &lt;span style=&quot;color: rgb(0, 0, 255); font-size: 10px;&quot;&gt;null&lt;/span&gt;) {&lt;/div&gt;&lt;div style=&quot;font-size: 10px;&quot;&gt;&lt;/div&gt;&lt;/div&gt;" style="ellipse;whiteSpace=wrap;html=1;aspect=fixed;fontSize=10;align=center;labelPosition=center;verticalLabelPosition=middle;verticalAlign=middle;horizontal=1;" parent="1" vertex="1">
          <mxGeometry x="510" y="1330" width="120" height="120" as="geometry" />
        </mxCell>
        <mxCell id="_7y6-RLy95nnaobHyLht-47" value="" style="edgeStyle=orthogonalEdgeStyle;rounded=0;orthogonalLoop=1;jettySize=auto;html=1;" parent="1" source="_7y6-RLy95nnaobHyLht-14" target="_7y6-RLy95nnaobHyLht-15" edge="1">
          <mxGeometry relative="1" as="geometry" />
        </mxCell>
        <mxCell id="_7y6-RLy95nnaobHyLht-14" value="&lt;div style=&quot;color: rgb(59, 59, 59); background-color: rgb(255, 255, 255); font-family: Menlo, Monaco, &amp;quot;Courier New&amp;quot;, monospace; font-size: 10px; line-height: 18px;&quot;&gt;&lt;div style=&quot;font-size: 10px;&quot;&gt;            for (&lt;span style=&quot;color: rgb(38, 127, 153); font-size: 10px;&quot;&gt;Integer&lt;/span&gt; i &lt;span style=&quot;color: rgb(0, 0, 0); font-size: 10px;&quot;&gt;=&lt;/span&gt; &lt;span style=&quot;color: rgb(9, 134, 88); font-size: 10px;&quot;&gt;0&lt;/span&gt;; i &lt;span style=&quot;color: rgb(0, 0, 0); font-size: 10px;&quot;&gt;&amp;lt;&lt;/span&gt; currencies&lt;span style=&quot;color: rgb(0, 0, 0); font-size: 10px;&quot;&gt;.&lt;/span&gt;size(); i&lt;span style=&quot;color: rgb(0, 0, 0); font-size: 10px;&quot;&gt;++&lt;/span&gt;) {&lt;/div&gt;&lt;div style=&quot;font-size: 10px;&quot;&gt;&lt;/div&gt;&lt;/div&gt;" style="ellipse;whiteSpace=wrap;html=1;aspect=fixed;fontSize=10;align=center;labelPosition=center;verticalLabelPosition=middle;verticalAlign=middle;horizontal=1;" parent="1" vertex="1">
          <mxGeometry x="700" y="1330" width="120" height="120" as="geometry" />
        </mxCell>
        <mxCell id="_7y6-RLy95nnaobHyLht-44" value="" style="edgeStyle=orthogonalEdgeStyle;rounded=0;orthogonalLoop=1;jettySize=auto;html=1;fontSize=10;" parent="1" source="_7y6-RLy95nnaobHyLht-15" target="_7y6-RLy95nnaobHyLht-4" edge="1">
          <mxGeometry relative="1" as="geometry" />
        </mxCell>
        <mxCell id="_7y6-RLy95nnaobHyLht-15" value="&lt;div style=&quot;color: rgb(59, 59, 59); background-color: rgb(255, 255, 255); font-family: Menlo, Monaco, &amp;quot;Courier New&amp;quot;, monospace; font-size: 10px; line-height: 18px;&quot;&gt;&lt;div style=&quot;font-size: 10px;&quot;&gt;                if (currencies&lt;span style=&quot;color: rgb(0, 0, 0); font-size: 10px;&quot;&gt;.&lt;/span&gt;get(i)&lt;span style=&quot;color: rgb(0, 0, 0); font-size: 10px;&quot;&gt;.&lt;/span&gt;getName() &lt;span style=&quot;color: rgb(0, 0, 0); font-size: 10px;&quot;&gt;==&lt;/span&gt; currency1) {&lt;/div&gt;&lt;div style=&quot;font-size: 10px;&quot;&gt;&lt;/div&gt;&lt;/div&gt;" style="ellipse;whiteSpace=wrap;html=1;aspect=fixed;fontSize=10;align=center;labelPosition=center;verticalLabelPosition=middle;verticalAlign=middle;horizontal=1;" parent="1" vertex="1">
          <mxGeometry x="700" y="1150" width="120" height="120" as="geometry" />
        </mxCell>
        <mxCell id="_7y6-RLy95nnaobHyLht-42" value="" style="edgeStyle=orthogonalEdgeStyle;rounded=0;orthogonalLoop=1;jettySize=auto;html=1;fontSize=10;" parent="1" source="_7y6-RLy95nnaobHyLht-16" target="_7y6-RLy95nnaobHyLht-40" edge="1">
          <mxGeometry relative="1" as="geometry" />
        </mxCell>
        <mxCell id="_7y6-RLy95nnaobHyLht-16" value="&lt;div style=&quot;color: rgb(59, 59, 59); background-color: rgb(255, 255, 255); font-family: Menlo, Monaco, &amp;quot;Courier New&amp;quot;, monospace; font-size: 10px; line-height: 18px;&quot;&gt;&lt;div style=&quot;font-size: 10px;&quot;&gt;                    price = &lt;span style=&quot;color: rgb(38, 127, 153); font-size: 10px;&quot;&gt;Currency&lt;/span&gt;&lt;span style=&quot;color: rgb(0, 0, 0); font-size: 10px;&quot;&gt;.&lt;/span&gt;convert(amount, exchangeValue);&lt;/div&gt;&lt;div style=&quot;font-size: 10px;&quot;&gt;&lt;/div&gt;&lt;/div&gt;" style="ellipse;whiteSpace=wrap;html=1;aspect=fixed;fontSize=10;align=center;labelPosition=center;verticalLabelPosition=middle;verticalAlign=middle;horizontal=1;" parent="1" vertex="1">
          <mxGeometry x="700" y="820" width="120" height="120" as="geometry" />
        </mxCell>
        <mxCell id="_7y6-RLy95nnaobHyLht-39" value="" style="edgeStyle=orthogonalEdgeStyle;rounded=0;orthogonalLoop=1;jettySize=auto;html=1;fontSize=10;" parent="1" source="_7y6-RLy95nnaobHyLht-17" target="_7y6-RLy95nnaobHyLht-6" edge="1">
          <mxGeometry relative="1" as="geometry" />
        </mxCell>
        <mxCell id="_7y6-RLy95nnaobHyLht-17" value="&lt;div style=&quot;color: rgb(59, 59, 59); background-color: rgb(255, 255, 255); font-family: Menlo, Monaco, &amp;quot;Courier New&amp;quot;, monospace; font-size: 10px; line-height: 18px;&quot;&gt;&lt;div style=&quot;font-size: 10px;&quot;&gt;        return price;&lt;/div&gt;&lt;div style=&quot;font-size: 10px;&quot;&gt;&lt;/div&gt;&lt;/div&gt;" style="ellipse;whiteSpace=wrap;html=1;aspect=fixed;fontSize=10;align=center;labelPosition=center;verticalLabelPosition=middle;verticalAlign=middle;horizontal=1;" parent="1" vertex="1">
          <mxGeometry x="700" y="530" width="120" height="120" as="geometry" />
        </mxCell>
        <mxCell id="_7y6-RLy95nnaobHyLht-35" value="" style="endArrow=classic;html=1;rounded=0;fontSize=10;" parent="1" source="_7y6-RLy95nnaobHyLht-10" target="_7y6-RLy95nnaobHyLht-9" edge="1">
          <mxGeometry width="50" height="50" relative="1" as="geometry">
            <mxPoint x="560" y="1210" as="sourcePoint" />
            <mxPoint x="580" y="1200" as="targetPoint" />
            <Array as="points">
              <mxPoint x="280" y="1220" />
              <mxPoint x="280" y="1170" />
            </Array>
          </mxGeometry>
        </mxCell>
        <mxCell id="_7y6-RLy95nnaobHyLht-36" value="" style="endArrow=classic;html=1;rounded=0;exitX=0.917;exitY=0.583;exitDx=0;exitDy=0;exitPerimeter=0;entryX=0.236;entryY=0.086;entryDx=0;entryDy=0;entryPerimeter=0;fontSize=10;" parent="1" source="_7y6-RLy95nnaobHyLht-9" target="_7y6-RLy95nnaobHyLht-13" edge="1">
          <mxGeometry width="50" height="50" relative="1" as="geometry">
            <mxPoint x="650" y="1210" as="sourcePoint" />
            <mxPoint x="700" y="1160" as="targetPoint" />
          </mxGeometry>
        </mxCell>
        <mxCell id="_7y6-RLy95nnaobHyLht-38" value="" style="endArrow=classic;html=1;rounded=0;exitX=1;exitY=0.5;exitDx=0;exitDy=0;fontSize=10;" parent="1" source="_7y6-RLy95nnaobHyLht-12" target="_7y6-RLy95nnaobHyLht-13" edge="1">
          <mxGeometry width="50" height="50" relative="1" as="geometry">
            <mxPoint x="650" y="1240" as="sourcePoint" />
            <mxPoint x="700" y="1190" as="targetPoint" />
          </mxGeometry>
        </mxCell>
        <mxCell id="_7y6-RLy95nnaobHyLht-41" value="" style="edgeStyle=orthogonalEdgeStyle;rounded=0;orthogonalLoop=1;jettySize=auto;html=1;fontSize=10;" parent="1" source="_7y6-RLy95nnaobHyLht-40" target="_7y6-RLy95nnaobHyLht-17" edge="1">
          <mxGeometry relative="1" as="geometry" />
        </mxCell>
        <mxCell id="_7y6-RLy95nnaobHyLht-40" value="&lt;div style=&quot;color: rgb(59, 59, 59); background-color: rgb(255, 255, 255); font-family: Menlo, Monaco, &amp;quot;Courier New&amp;quot;, monospace; font-size: 10px; line-height: 18px;&quot;&gt;&lt;div style=&quot;font-size: 10px;&quot;&gt;                    break;&lt;/div&gt;&lt;div style=&quot;font-size: 10px;&quot;&gt;&lt;/div&gt;&lt;/div&gt;" style="ellipse;whiteSpace=wrap;html=1;aspect=fixed;fontSize=10;align=center;labelPosition=center;verticalLabelPosition=middle;verticalAlign=middle;horizontal=1;" parent="1" vertex="1">
          <mxGeometry x="700" y="670" width="120" height="120" as="geometry" />
        </mxCell>
        <mxCell id="_7y6-RLy95nnaobHyLht-46" value="" style="endArrow=classic;html=1;rounded=0;exitX=0.5;exitY=0;exitDx=0;exitDy=0;entryX=0.079;entryY=0.818;entryDx=0;entryDy=0;entryPerimeter=0;" parent="1" source="_7y6-RLy95nnaobHyLht-13" target="_7y6-RLy95nnaobHyLht-17" edge="1">
          <mxGeometry width="50" height="50" relative="1" as="geometry">
            <mxPoint x="430" y="1140" as="sourcePoint" />
            <mxPoint x="480" y="1090" as="targetPoint" />
          </mxGeometry>
        </mxCell>
        <mxCell id="_7y6-RLy95nnaobHyLht-48" value="" style="endArrow=classic;html=1;rounded=0;" parent="1" source="_7y6-RLy95nnaobHyLht-14" target="_7y6-RLy95nnaobHyLht-17" edge="1">
          <mxGeometry width="50" height="50" relative="1" as="geometry">
            <mxPoint x="430" y="1230" as="sourcePoint" />
            <mxPoint x="940" y="830" as="targetPoint" />
            <Array as="points">
              <mxPoint x="990" y="1390" />
              <mxPoint x="990" y="590" />
            </Array>
          </mxGeometry>
        </mxCell>
        <mxCell id="_7y6-RLy95nnaobHyLht-49" value="" style="endArrow=classic;html=1;rounded=0;entryX=0.975;entryY=0.258;entryDx=0;entryDy=0;entryPerimeter=0;exitX=1.048;exitY=0.571;exitDx=0;exitDy=0;exitPerimeter=0;" parent="1" source="_7y6-RLy95nnaobHyLht-15" target="_7y6-RLy95nnaobHyLht-14" edge="1">
          <mxGeometry width="50" height="50" relative="1" as="geometry">
            <mxPoint x="830" y="1260" as="sourcePoint" />
            <mxPoint x="880" y="1210" as="targetPoint" />
            <Array as="points">
              <mxPoint x="910" y="1219" />
              <mxPoint x="910" y="1360" />
            </Array>
          </mxGeometry>
        </mxCell>
      </root>
    </mxGraphModel>
  </diagram>
</mxfile>
